<svg width="36" height="36" viewBox="0 0 36 36" fill="none" xmlns="http://www.w3.org/2000/svg">
<path d="M13.7222 31.59C12.6225 32.1075 11.5566 32.8472 10.845 33.3394C10.6172 33.4969 10.1362 33.8597 10.4541 34.1747C10.6622 34.3828 11.3203 34.2225 11.6072 34.2591C11.5931 35.1028 12.4509 34.9875 12.9853 34.6922C13.2947 34.5206 13.5141 34.3519 13.7756 34.6303C14.0766 34.9538 14.1272 35.0944 14.6222 34.9622C15.0131 34.8553 15.2578 34.5431 15.5391 34.2759C16.1719 33.6769 18.3516 31.4719 16.3491 31.0472C15.5812 30.8841 14.6419 31.1597 13.7222 31.59ZM20.5875 32.4956C19.5131 33.0019 18.4697 33.7275 17.7722 34.2084C17.55 34.3659 17.0775 34.7175 17.3925 35.0241C17.595 35.2294 18.2419 35.0719 18.5147 35.1084C18.5062 35.9353 19.3444 35.82 19.8647 35.5331C20.1712 35.3644 20.3822 35.1984 20.6381 35.4741C20.9306 35.7863 20.9812 35.9241 21.4678 35.7947C21.8503 35.6878 22.0894 35.3841 22.365 35.1225C22.9809 34.5375 25.1184 32.3803 23.1553 31.9641C22.4044 31.8038 21.4847 32.0738 20.5875 32.4956Z" fill="#FCC21B"/>
<path d="M10.7381 9.93937C10.1531 10.3556 9.40781 11.3597 9.28125 11.5537C7.85531 13.7447 7.41937 15.8653 6.76687 18.2672C6.18187 20.4272 5.05968 22.365 3.60281 24.2212C3.22875 24.7022 2.80968 25.4812 3.23156 26.0437C3.92906 26.9775 6.20156 26.9381 7.30125 26.7637C12.7547 25.9144 11.2809 21.1866 11.1009 17.9297C11.0306 16.5712 10.9547 15.2128 10.8928 13.8516C10.8394 12.6478 11.4609 11.5594 11.4609 10.3444C11.4609 9.64125 11.1375 9.6525 10.7381 9.93937Z" fill="#006CA2"/>
<path d="M28.4288 30.6141C28.8028 30.3694 31.0838 29.5312 30.3525 28.8422C30.0938 28.5947 29.4103 28.6566 29.0672 28.6059C28.4259 28.5103 27.7059 28.2937 27.3038 27.7509C26.986 27.3206 26.9213 26.7553 26.9297 26.235C26.9353 25.92 26.9016 25.7456 27.1463 25.6247C27.3291 25.5375 27.72 25.5825 27.9141 25.5825C29.1038 25.5881 30.3328 25.6162 31.4663 25.1916C32.0006 24.9919 32.9006 24.6656 32.94 23.9794C32.985 23.1553 31.68 22.8853 31.1681 22.5028C24.3563 17.4037 27.7622 6.56156 21.0459 1.51031C17.9409 -0.82688 12.8813 -0.0731296 10.7775 3.27656C10.1081 4.33968 9.61876 5.6025 9.47813 6.85406C9.34313 8.00156 9.74813 9.07031 9.48376 10.2234C9.19688 11.4778 8.58094 12.6366 8.38407 13.9106C7.58532 19.0856 6.07501 27.8972 11.5538 31.2187C12.6338 31.8741 13.5647 32.4703 14.8388 32.7178C19.3528 33.5925 24.4997 33.1875 28.4288 30.6141Z" fill="#006CA2"/>
<mask id="mask0_1_1738" style="mask-type:luminance" maskUnits="userSpaceOnUse" x="7" y="0" width="26" height="34">
<path d="M28.4288 30.6141C28.8028 30.3694 31.0838 29.5312 30.3525 28.8422C30.0938 28.5947 29.4103 28.6566 29.0672 28.6059C28.4259 28.5103 27.7059 28.2937 27.3038 27.7509C26.986 27.3206 26.9213 26.7553 26.9297 26.235C26.9353 25.92 26.9016 25.7456 27.1463 25.6247C27.3291 25.5375 27.72 25.5825 27.9141 25.5825C29.1038 25.5881 30.3328 25.6162 31.4663 25.1916C32.0006 24.9919 32.9006 24.6656 32.94 23.9794C32.985 23.1553 31.68 22.8853 31.1681 22.5028C24.3563 17.4037 27.7622 6.56156 21.0459 1.51031C17.9409 -0.82688 12.8813 -0.0731296 10.7775 3.27656C10.1081 4.33968 9.61876 5.6025 9.47813 6.85406C9.34313 8.00156 9.74813 9.07031 9.48376 10.2234C9.19688 11.4778 8.58094 12.6366 8.38407 13.9106C7.58532 19.0856 6.07501 27.8972 11.5538 31.2187C12.6338 31.8741 13.5647 32.4703 14.8388 32.7178C19.3528 33.5925 24.4997 33.1875 28.4288 30.6141Z" fill="white"/>
</mask>
<g mask="url(#mask0_1_1738)">
<path d="M17.3278 31.6266C16.6641 31.5619 15.9947 31.4663 15.3281 31.3369C14.9231 31.2581 14.5575 31.1259 14.1975 30.9684C13.6688 30.735 13.1653 30.4397 12.6225 30.1106L12.4509 30.0066C10.98 29.115 10.0969 27.7172 9.59907 26.0775C8.52189 22.5394 9.23907 17.8734 9.73407 14.6728L9.79314 14.3016C9.88595 13.6941 10.0997 13.1034 10.3191 12.4791C10.4513 12.1134 10.5778 11.7309 10.6903 11.3428C10.7128 11.3569 10.7353 11.3681 10.7606 11.3822C11.6466 11.9109 12.7181 12.2316 13.8403 12.2681C13.9219 12.2709 14.0091 12.2738 14.0963 12.2738C14.8725 12.2738 16.3069 12.1669 17.2688 11.4075C17.3897 11.3063 17.5078 11.2388 17.6569 11.1516C18.0422 10.9209 18.3291 10.7044 18.5597 10.4653C18.8944 10.1166 19.215 9.765 19.5356 9.39656C19.8675 9.00844 20.0194 8.42906 20.1516 7.91719L20.2725 7.45875C20.4019 6.94688 20.5284 6.46031 20.9897 6.17344C21.1641 6.06375 21.3385 6.01031 21.51 6.01031C22.0697 6.01031 22.5366 6.58407 22.9303 7.065C23.2425 7.44469 23.3325 7.83844 23.3831 8.3925C23.4394 8.98875 23.4703 9.52594 23.296 10.0744C22.9388 11.1825 21.9713 11.7422 21.2231 12.0122C21.1022 12.0572 20.9644 12.0909 20.8266 12.1247C20.4638 12.2147 20.0869 12.3103 19.9322 12.6C19.8394 12.78 19.8422 13.005 19.9463 13.2891C20.0081 13.455 20.1178 13.5984 20.2219 13.7363L20.3316 13.8853C20.4891 14.1131 20.5931 14.3691 20.6972 14.6363L20.7281 14.715C21.555 16.7709 22.0641 18.7931 22.2413 20.7281C22.2891 21.2513 22.3425 21.6366 22.4185 22.0163C22.4747 22.2891 22.5506 22.5563 22.6266 22.8234C22.68 23.0063 22.7334 23.1891 22.7785 23.3747C22.9247 23.9681 23.1328 24.5278 23.3325 25.0706C23.4225 25.3041 23.5069 25.5403 23.5913 25.7794C24.1193 27.2874 25.0478 28.6232 26.2772 29.6438C26.415 29.7591 26.5725 29.8856 26.7385 30.0094C25.6022 30.6141 24.3366 31.0584 22.9753 31.3453C22.4128 31.4634 21.8334 31.5506 21.24 31.6125C20.6016 31.6772 19.9519 31.7194 19.2853 31.7194C18.6384 31.7222 17.9831 31.6884 17.3278 31.6266Z" fill="white"/>
</g>
<path d="M17.2069 5.33813C17.2069 6.08345 16.7062 6.69095 16.0847 6.69095C15.4716 6.69095 14.9653 6.08345 14.9653 5.33813C14.9653 4.59001 15.4716 3.98532 16.0847 3.98532C16.7062 3.98532 17.2069 4.59001 17.2069 5.33813Z" fill="white"/>
<path d="M10.0041 4.63219C9.6525 4.7475 9.30938 5.03156 9.00563 5.19469C8.33625 5.55469 7.63313 5.85562 6.99188 6.26625C6.53063 6.55875 6.09469 6.91875 5.79657 7.38844C5.49282 7.875 5.29313 8.505 6.09469 8.47406C6.35625 8.46562 6.60657 8.37843 6.8625 8.31937C7.28438 8.22375 7.68657 8.16187 8.11688 8.11406C8.59219 8.06062 9.10688 8.11687 9.585 8.11687C10.1475 8.11687 11.115 8.17875 11.4244 7.57406C11.7253 6.99187 11.4834 6.12844 11.2697 5.56594C11.1572 5.265 11.0166 4.92187 10.7466 4.72781C10.4963 4.55062 10.2488 4.55062 10.0041 4.63219Z" fill="#FCC21B"/>
</svg>
